# xmcd
#
# Track frame offsets: 
#        150
#        21122
#        39515
#        60412
#
# Disc length: 1046 seconds
#
# Revision: 1
# Processed by: cddbd v1.5.2PL0 Copyright (c) Steve Scherf et al.
# Submitted via: ExactAudioCopyFreeDBPlugin 1.0
#
DISCID=27041404
DTITLE=Do As Infinity - TAO
DYEAR=2005
DGENRE=JPop
TTITLE0=TAO
TTITLE1=aurora
TTITLE2=TAO(instrumental)
TTITLE3=aurora(instrumental)
EXTD=
EXTT0=
EXTT1=
EXTT2=
EXTT3=
PLAYORDER=
